<?xml version="1.0" encoding="utf-8"?>
<!-- Generator: Adobe Illustrator 23.0.1, SVG Export Plug-In . SVG Version: 6.00 Build 0)  -->
<svg version="1.1" xmlns="http://www.w3.org/2000/svg" xmlns:xlink="http://www.w3.org/1999/xlink" x="0px" y="0px"
	 viewBox="0 0 237.36 145.05" style="enable-background:new 0 0 237.36 145.05;" xml:space="preserve">
<style type="text/css">
	.st0{fill:#F4F4F4;}
	.st1{font-family:'LeagueSpartan-Bold';}
	.st2{font-size:25px;}
	.st3{fill:#00C2B4;}
	.st4{fill:#9DD288;}
	.st5{fill:#FFE153;}
	.st6{fill:#FFA259;}
</style>
<g id="BACKGROUND">
</g>
<g id="OBJECTS">
	<g>
		<text transform="matrix(1 0 0 1 15.7301 117.1425)" class="st0 st1 st2">WORLD OF BOOKS</text>
		<g>
			<g>
				<path class="st3" d="M125.82,85.99c-0.05,0.11-0.1,0.21-0.15,0.32c31.87-7.84,67.58-3.25,82.52-0.68l-25.88-16.55
					C167.27,70.63,145.5,73.19,125.82,85.99z"/>
				<path class="st4" d="M170.18,52.6c-0.19,0.07-0.37,0.15-0.56,0.22c-11.21,4.43-26.08,10.33-39.98,25.47
					c-0.53,0.99-1.06,2.02-1.59,3.07c19.82-11.55,40.97-13.72,55.39-15.19c8.19-0.84,14.89-1.52,16.85-3.55L170.18,52.6z"/>
				<path class="st5" d="M187.65,36.66l-20.61,0.03c-2.43,2.38-5.15,4.62-8.06,7.01c-7.17,5.91-15.57,12.83-23.87,25.4
					c11.97-10.34,24.01-15.11,33.49-18.86C178.73,46.23,185.67,43.48,187.65,36.66z"/>
				<path class="st6" d="M124.62,75.82v3.98v2.21c10.97-22.66,22.88-32.46,32.59-40.46c8.62-7.1,14.99-12.35,17.52-23.77L140,30.55
					c-1.86,10.93-5.36,16.41-8.46,21.25C127.83,57.61,124.62,62.63,124.62,75.82z"/>
			</g>
			<g>
				<path class="st3" d="M119.07,85.54c0.05,0.11,0.1,0.21,0.15,0.32c-31.87-7.84-67.58-3.25-82.52-0.68l25.88-16.55
					C77.62,70.18,99.39,72.74,119.07,85.54z"/>
				<path class="st4" d="M74.71,52.15c0.19,0.07,0.37,0.15,0.56,0.22c11.21,4.43,26.08,10.33,39.98,25.47
					c0.53,0.99,1.06,2.02,1.59,3.07C97.02,69.36,75.87,67.19,61.46,65.72c-8.19-0.84-14.89-1.52-16.85-3.55L74.71,52.15z"/>
				<path class="st5" d="M57.24,36.2l20.61,0.03c2.43,2.38,5.15,4.62,8.06,7.01c7.17,5.91,15.57,12.83,23.87,25.4
					C97.82,58.3,85.77,53.53,76.29,49.78C66.16,45.77,59.22,43.03,57.24,36.2z"/>
				<path class="st6" d="M120.27,75.37v3.98v2.21C109.3,58.9,97.39,49.1,87.68,41.1C79.07,34,72.69,28.75,70.17,17.33l34.72,12.78
					c1.86,10.93,5.36,16.41,8.46,21.25C117.06,57.16,120.27,62.18,120.27,75.37z"/>
			</g>
		</g>
	</g>
</g>
</svg>
